<svg xmlns="http://www.w3.org/2000/svg" xmlns:xlink="http://www.w3.org/1999/xlink" width="800" zoomAndPan="magnify" viewBox="0 0 600 449.999984" height="600" preserveAspectRatio="xMidYMid meet" version="1.0"><path fill="#fdbe7b" d="M 48.597656 291.289062 C 31.398438 291.289062 16.710938 282.601562 16.710938 260.585938 L 16.710938 216.367188 L 0.671875 216.367188 L 0.671875 193.96875 L 17.679688 193.96875 L 17.679688 168.285156 L 43.765625 158.632812 L 43.765625 193.96875 L 64.832031 193.96875 L 64.832031 216.367188 L 43.765625 216.367188 L 43.765625 254.214844 C 43.765625 262.710938 48.019531 266.960938 57.101562 266.960938 C 60 266.960938 62.707031 266.378906 64.832031 265.800781 L 64.832031 289.167969 C 62.320312 289.9375 55.363281 291.289062 48.597656 291.289062 Z M 82.601562 288.394531 L 82.601562 193.96875 L 109.269531 193.96875 L 109.269531 207.679688 C 113.910156 197.25 122.605469 190.878906 134.585938 190.878906 C 136.519531 190.878906 140.382812 191.265625 141.542969 191.457031 L 141.542969 218.878906 C 138.453125 218.105469 135.359375 217.914062 131.6875 217.914062 C 121.445312 217.914062 111.976562 224.671875 109.65625 233.746094 L 109.65625 288.394531 Z M 198.371094 291.289062 C 171.125 291.289062 148.707031 273.140625 148.707031 240.503906 C 148.707031 210.769531 170.160156 190.878906 197.210938 190.878906 C 227.167969 190.878906 244.171875 211.734375 244.171875 240.890625 C 244.171875 243.207031 243.980469 247.265625 243.785156 248.808594 L 176.921875 248.808594 C 177.5 261.746094 189.484375 268.890625 201.269531 268.890625 C 214.023438 268.890625 224.847656 265.414062 237.214844 257.304688 L 237.214844 280.671875 C 228.519531 286.269531 217.3125 291.289062 198.371094 291.289062 Z M 177.5 230.65625 L 216.925781 230.65625 C 216.34375 221.773438 210.160156 213.277344 197.210938 213.277344 C 185.425781 213.277344 178.082031 222.160156 177.5 230.65625 Z M 370.503906 190.878906 C 388.28125 190.878906 404.324219 203.042969 404.324219 225.445312 L 404.324219 288.394531 L 377.265625 288.394531 L 377.265625 232.203125 C 377.265625 221.96875 371.664062 215.59375 362.582031 215.59375 C 355.816406 215.59375 350.40625 219.457031 346.539062 224.863281 L 346.539062 288.394531 L 319.484375 288.394531 L 319.484375 232.203125 C 319.484375 221.96875 314.074219 215.59375 304.992188 215.59375 C 297.839844 215.59375 292.429688 219.652344 288.566406 225.445312 L 288.566406 288.394531 L 261.511719 288.394531 L 261.511719 193.96875 L 288.179688 193.96875 L 288.179688 201.5 C 293.394531 195.511719 301.320312 190.878906 313.300781 190.878906 C 324.316406 190.878906 334.558594 195.511719 340.550781 204.394531 C 345.378906 198.796875 354.851562 190.878906 370.503906 190.878906 Z M 471.117188 291.289062 C 440.582031 291.289062 419.710938 269.277344 419.710938 240.890625 C 419.710938 212.699219 440.582031 190.878906 471.117188 190.878906 C 501.652344 190.878906 522.714844 212.699219 522.714844 240.890625 C 522.714844 269.277344 501.652344 291.289062 471.117188 291.289062 Z M 471.117188 265.800781 C 484.257812 265.800781 494.695312 256.53125 494.695312 240.890625 C 494.695312 225.636719 484.257812 216.175781 471.117188 216.175781 C 458.167969 216.175781 447.734375 225.636719 447.734375 240.890625 C 447.734375 256.53125 458.167969 265.800781 471.117188 265.800781 Z M 540.0625 288.394531 L 540.0625 193.96875 L 566.730469 193.96875 L 566.730469 207.679688 C 571.371094 197.25 580.066406 190.878906 592.046875 190.878906 C 593.980469 190.878906 597.847656 191.265625 599.003906 191.457031 L 599.003906 218.878906 C 595.914062 218.105469 592.820312 217.914062 589.148438 217.914062 C 578.90625 217.914062 569.4375 224.671875 567.117188 233.746094 L 567.117188 288.394531 Z M 540.0625 288.394531 " fill-opacity="1" fill-rule="nonzero"/></svg>